<svg xmlns="http://www.w3.org/2000/svg" xmlns:xlink="http://www.w3.org/1999/xlink" version="1.1" class="thumbnail-icon" viewBox="-0.00000762939453125 0.8525390625 200 198.29493713378906"><g data-paper-data="{&quot;fillRule&quot;:&quot;evenodd&quot;,&quot;isIcon&quot;:&quot;true&quot;,&quot;iconType&quot;:&quot;icon&quot;,&quot;rawIconId&quot;:&quot;e2c1173f-5ebd-443d-a035-45b1c0649af4&quot;,&quot;selectedEffects&quot;:{&quot;container&quot;:&quot;&quot;,&quot;transformation&quot;:&quot;&quot;,&quot;pattern&quot;:&quot;&quot;},&quot;isDetailed&quot;:false,&quot;bounds&quot;:{&quot;x&quot;:211.31518781610222,&quot;y&quot;:115,&quot;width&quot;:127.36962436779552,&quot;height&quot;:126.28374737221034},&quot;iconStyle&quot;:&quot;standalone&quot;}"><path d="M0,100c0,-54.75774 44.38972,-99.14746 99.14746,-99.14746c23.09234,0 44.34101,7.89477 61.19346,21.1322c-12.83376,-7.14615 -27.61511,-11.21755 -43.34689,-11.21755c-49.28187,0 -89.23281,39.9508 -89.23281,89.23281c0,49.28187 39.95094,89.23281 89.23281,89.23281c15.73179,0 30.51313,-4.07139 43.34689,-11.21755c-16.85244,13.23744 -38.10112,21.1322 -61.19346,21.1322c-54.75774,0 -99.14746,-44.38982 -99.14746,-99.14746zM200,100c0,43.80609 -35.51187,79.31817 -79.31767,79.31817c-18.47417,0 -35.47281,-6.31586 -48.95511,-16.90586c10.2673,5.71697 22.09214,8.97384 34.67787,8.97384c39.42512,0 71.38575,-31.96064 71.38575,-71.38615c0,-39.42561 -31.96064,-71.38625 -71.38575,-71.38625c-12.58573,0 -24.41055,3.25701 -34.67787,8.97374c13.4823,-10.58995 30.48094,-16.90565 48.95511,-16.90565c43.8058,0 79.31767,35.51187 79.31767,79.31817zM83.37099,127.89576l6.266,-12.35126l-22.23226,-43.44028h-12.47176zM98.6745,92.64949l18.01476,35.24627l28.37777,-55.79154h-12.53201l-15.84576,31.20952l-11.74876,-23.01552z" fill-rule="evenodd" fill="#FF4E50"/></g></svg>